# xmcd
#
# Track frame offsets:
#   150
#   21146
#   34330
#   47548
#   64613
#   76668
#   99174
#   114987
#   130555
#   150947
#   165733
#   177826
#   188544
#   202550
#   217029
#   232940
#   247237
#   260752
#   278542
#   296010
#   313456
#
# Disc length: 4380 seconds
#
# Revision: 0
# Processed by: cddbd v1.5.2PL0 Copyright (c) Steve Scherf et al.
# Submitted via: uFREEDB ActiveX Control 1.5
#
DISCID=11111a15
DTITLE=Hugo pena e Gabriel - Hugo pena e gabriel
DYEAR=1900
DGENRE=Country
TTITLE0=Morro de saudade
TTITLE1=Bandidaça
TTITLE2=Mala pronta
TTITLE3=Por enquanto adeus
TTITLE4=Tadim, tadim
TTITLE5=Parece castigo
TTITLE6=Pra lá de bagdá
TTITLE7=Pout porrit de viola
TTITLE8=Vou te amar (cigana)
TTITLE9=Meu calor
TTITLE10=Robin hood da paixão
TTITLE11=Abuso de mulher
TTITLE12=Coisas Exotéricas
TTITLE13=Fora do eixo
TTITLE14=Amanhã vazio
TTITLE15=Ela é violenta
TTITLE16=Inesquecivel
TTITLE17=Sinto falta desse amor
TTITLE18=Delicia
TTITLE19=Fica do meu lado
TTITLE20=Meu coração chorou
EXTD=
EXTT0=
EXTT1=
EXTT2=
EXTT3=
EXTT4=
EXTT5=
EXTT6=
EXTT7=
EXTT8=
EXTT9=
EXTT10=
EXTT11=
EXTT12=
EXTT13=
EXTT14=
EXTT15=
EXTT16=
EXTT17=
EXTT18=
EXTT19=
EXTT20=
PLAYORDER=
